<?xml version="1.0" standalone="no"?>
<!DOCTYPE svg PUBLIC "-//W3C//DTD SVG 20010904//EN"
 "http://www.w3.org/TR/2001/REC-SVG-20010904/DTD/svg10.dtd">
<svg version="1.0" xmlns="http://www.w3.org/2000/svg"
 width="512.000000pt" height="512.000000pt" viewBox="0 0 512.000000 512.000000"
 preserveAspectRatio="xMidYMid meet">
<metadata>
Created by potrace 1.11, written by Peter Selinger 2001-2013
</metadata>
<g transform="translate(0.000000,512.000000) scale(0.100000,-0.100000)"
fill="#000000" stroke="none">
<path d="M1689 5063 c-11 -26 -41 -97 -66 -158 -108 -266 -236 -482 -417 -706
-106 -132 -301 -332 -421 -430 -49 -41 -92 -76 -95 -79 -27 -30 -294 -205
-457 -301 -51 -30 -91 -58 -90 -63 2 -5 16 -17 33 -25 16 -9 48 -29 71 -44 24
-15 45 -27 47 -27 3 0 49 -28 103 -61 402 -252 736 -575 979 -944 115 -175
158 -259 260 -507 38 -93 71 -168 75 -168 3 0 40 84 83 188 43 103 100 228
126 279 217 409 604 826 1020 1098 25 16 114 70 198 121 l153 92 -153 92
c-363 220 -556 374 -804 641 -187 201 -389 503 -476 709 -99 234 -128 307
-128 317 0 32 -22 19 -41 -24z"/>
<path d="M3772 3186 c-81 -162 -160 -272 -274 -387 -169 -169 -319 -271 -602
-412 -101 -50 -175 -92 -170 -97 5 -5 82 -45 171 -89 274 -136 442 -251 601
-412 119 -121 192 -224 273 -386 40 -79 75 -143 79 -143 4 0 37 59 74 132 82
160 97 184 174 278 173 216 383 372 726 541 l168 82 -199 101 c-289 147 -429
244 -591 407 -117 119 -186 218 -270 384 -41 80 -76 145 -80 145 -4 0 -40 -65
-80 -144z"/>
<path d="M2537 2198 c-9 -43 -135 -336 -172 -403 -87 -155 -246 -338 -390
-449 -72 -56 -107 -80 -240 -164 -22 -14 -52 -33 -67 -44 -15 -10 -33 -18 -40
-18 -7 0 4 -11 24 -25 20 -14 42 -25 47 -25 6 0 11 -4 11 -10 0 -5 4 -10 10
-10 15 0 178 -107 255 -168 149 -116 314 -310 400 -468 17 -32 63 -137 101
-231 38 -95 71 -173 74 -173 3 0 23 44 44 98 115 284 159 370 263 505 62 80
180 198 268 269 64 51 295 201 330 214 8 4 15 10 15 14 0 5 -55 42 -122 83
-290 178 -457 343 -615 607 -12 19 -42 87 -68 150 -26 63 -53 129 -60 145 -7
17 -19 47 -26 68 -18 50 -35 65 -42 35z"/>
</g>
</svg>
